<?xml version="1.0" encoding="UTF-8"?>
<svg version="1.1" xmlns="http://www.w3.org/2000/svg" width="512" height="512">
<path d="M0 0 C0.68396851 -0.00067474 1.36793701 -0.00134949 2.07263184 -0.00204468 C46.76670047 0.0676392 90.61639415 16.4193558 123.25 47.25 C124.57941948 48.37962233 125.91263718 49.50479312 127.25 50.625 C158.78459867 78.30466777 178.20784451 122.00916851 182.25 163.25 C182.39736367 166.05908065 182.43616002 168.86316552 182.453125 171.67578125 C182.46018463 172.45673157 182.46724426 173.23768188 182.47451782 174.04229736 C182.70165629 206.53641141 182.70165629 206.53641141 179.25 220.25 C178.95198486 221.47348145 178.95198486 221.47348145 178.64794922 222.72167969 C166.86420509 269.98023103 138.95804444 310.37846189 97.6875 336.5625 C79.31814818 347.42855494 59.94330154 355.10735628 39.25 360.25 C38.17032959 360.52336182 38.17032959 360.52336182 37.06884766 360.80224609 C-6.97622599 371.34913649 -56.85627753 360.25810938 -95.00390625 337.26953125 C-134.88433324 312.42264893 -164.00265423 272.69305684 -175.75 227.25 C-177.35715478 220.30014149 -178.65626602 213.2979037 -179.75 206.25 C-179.94335938 205.04472656 -180.13671875 203.83945312 -180.3359375 202.59765625 C-181.09827784 196.12179265 -180.99443872 189.57419863 -181 183.0625 C-181.00067474 182.35235748 -181.00134949 181.64221497 -181.00204468 180.91055298 C-180.92730018 131.21523958 -160.69329525 85.38823693 -125.75 50.25 C-97.09632057 23.99904106 -62.35825824 6.63269598 -23.75 1.25 C-23.10047363 1.1557373 -22.45094727 1.06147461 -21.78173828 0.96435547 C-14.54681883 0.02315929 -7.28604444 0.00648538 0 0 Z M-119.375 76 C-147.23283863 107.93957323 -161.12988468 150.09858088 -158.75 192.25 C-155.69956637 228.8953409 -141.20519946 263.56508076 -115.75 290.25 C-113.05182916 287.57185269 -110.38346457 284.87413727 -107.76171875 282.12109375 C-90.51420143 264.1765752 -70.41913682 251.26506731 -46.75 243.25 C-49.93296018 239.96094115 -53.25472335 236.90392058 -56.6875 233.875 C-71.91599587 220.15360786 -79.73606734 203.18912888 -83.75 183.25 C-85.4 182.92 -87.05 182.59 -88.75 182.25 C-87.43 181.92 -86.11 181.59 -84.75 181.25 C-84.72421875 179.93128906 -84.6984375 178.61257813 -84.671875 177.25390625 C-83.9619369 151.97774337 -77.5339836 127.39992508 -58.75 109.25 C-40.05730084 92.17688489 -17.12838535 85.09895003 7.90917969 86.09765625 C29.91804943 87.53002324 49.805724 98.12551362 64.875 113.875 C82.20377334 134.02473644 85.10904872 155.0081205 86.25 181.25 C110.67 181.25 135.09 181.25 160.25 181.25 C160.25 138.95839667 144.45113238 100.75708642 115.25 70.25 C114.15365234 69.05890625 114.15365234 69.05890625 113.03515625 67.84375 C101.60175682 55.82060784 87.94106885 46.78786463 73.25 39.25 C72.33250977 38.77288574 72.33250977 38.77288574 71.39648438 38.28613281 C6.33483499 4.84682107 -70.56110936 24.33503256 -119.375 76 Z M-44.4375 126.3125 C-56.49694877 138.88878229 -62.84690012 154.78859926 -62.75 172.25 C-62.59971001 173.82501541 -62.43192028 175.39843642 -62.2487793 176.9699707 C-62.15614304 177.77352493 -62.06350677 178.57707916 -61.96806335 179.40498352 C-61.86012199 180.31826668 -61.86012199 180.31826668 -61.75 181.25 C-45.46929697 181.27332902 -29.18859933 181.29097919 -12.90788364 181.30181217 C-5.34898381 181.30697512 2.20990565 181.3140178 9.76879883 181.32543945 C16.35479666 181.33538632 22.94078698 181.34185343 29.52679211 181.34408849 C33.01613071 181.3453956 36.50544784 181.34848142 39.99477959 181.35573006 C43.88381232 181.36374398 47.77282378 181.36399114 51.66186523 181.36352539 C53.40973579 181.3689183 53.40973579 181.3689183 55.19291687 181.37442017 C56.24606079 181.3730455 57.29920471 181.37167084 58.38426208 181.37025452 C59.30513328 181.37117631 60.22600447 181.3720981 61.17478085 181.37304783 C63.24029255 181.48104526 63.24029255 181.48104526 64.25 180.25 C65.62200838 160.05223722 61.00270352 143.41117206 47.6484375 127.81640625 C36.32596867 115.7009958 20.97800452 108.52674826 4.4296875 107.2890625 C-14.29013786 107.05908922 -30.73488396 113.47689955 -44.4375 126.3125 Z M-60.75 183.25 C-60.1595673 189.67170082 -60.1595673 189.67170082 -58.21875 195.1796875 C-57.90744141 195.82494385 -57.59613281 196.4702002 -57.27539062 197.13500977 C-56.93701172 197.79170654 -56.59863281 198.44840332 -56.25 199.125 C-55.89615234 199.81972412 -55.54230469 200.51444824 -55.17773438 201.23022461 C-51.88686273 207.43230735 -47.82833933 212.39716419 -42.75 217.25 C-42.13769531 217.88164062 -41.52539062 218.51328125 -40.89453125 219.1640625 C-30.04447617 229.66710089 -13.68417351 235.25 1.25 235.25 C19.11580197 234.02316381 35.91391494 227.67915589 48.25 214.25 C55.72099073 204.90206086 61.26100898 195.18394612 63.25 183.25 C22.33 183.25 -18.59 183.25 -60.75 183.25 Z M86.25 183.25 C85.1855466 186.44336021 84.13682746 189.64377264 83.20703125 192.87890625 C77.46298223 212.8565569 66.14145794 230.97916967 48.25 242.25 C51.04612837 244.11408558 53.73054945 245.28937052 56.84594727 246.5065918 C78.81854816 255.11508848 100.05872524 269.18803743 114.8125 287.8515625 C116.27413913 289.59865044 116.27413913 289.59865044 119.25 289.25 C121.10281139 287.25139362 122.73652037 285.28983943 124.375 283.125 C124.86073486 282.49263428 125.34646973 281.86026855 125.84692383 281.20874023 C130.70612761 274.79522695 135.14266468 268.16721688 139.25 261.25 C139.59659668 260.66669922 139.94319336 260.08339844 140.30029297 259.48242188 C153.88786721 236.22590683 160.25 210.07180416 160.25 183.25 C135.83 183.25 111.41 183.25 86.25 183.25 Z M-95.49169922 300.70117188 C-96.90530406 302.441162 -97.81670599 304.21790711 -98.75 306.25 C-93.88383918 310.6052778 -88.96218685 314.25355915 -83.375 317.625 C-82.59116943 318.09832764 -81.80733887 318.57165527 -80.99975586 319.05932617 C-45.50651709 340.13020947 -2.62920875 347.58341345 37.75878906 337.63183594 C60.78463313 331.60104872 81.39739381 321.82717714 100.25 307.25 C95.55953959 293.54316232 79.80284729 283.91469095 68.25 276.25 C67.18845703 275.51523437 67.18845703 275.51523437 66.10546875 274.765625 C13.13291547 240.25460955 -54.06949022 257.97000419 -95.49169922 300.70117188 Z " fill="#030303" transform="translate(265.75,84.75)"/>
</svg>
